<svg width="216" height="78" viewBox="0 0 216 78" fill="none" xmlns="http://www.w3.org/2000/svg">
<g clip-path="url(#clip0_52_130)">
<path fill-rule="evenodd" clip-rule="evenodd" d="M4.93848 0C2.21104 0 0 2.21103 0 4.93847V72.4719C0 75.1994 2.21103 77.4104 4.93847 77.4104H211.062C213.789 77.4104 216 75.1994 216 72.4719V4.93847C216 2.21103 213.789 0 211.062 0H4.93848Z" fill="black"/>
<g clip-path="url(#clip1_52_130)">
<g clip-path="url(#clip2_52_130)">
<path fill-rule="evenodd" clip-rule="evenodd" d="M38.354 44.6134L16.707 32.7611C16.1309 32.4319 15.5547 32.3496 15.0609 32.5142L32.8394 50.2104L38.354 44.6134Z" fill="url(#paint0_linear_52_130)"/>
<path fill-rule="evenodd" clip-rule="evenodd" d="M38.4351 55.8053L45.8428 51.7722C47.3244 50.9491 47.3244 49.6322 45.8428 48.8091L38.4351 44.6937L32.8382 50.2083L38.4351 55.8053Z" fill="url(#paint1_linear_52_130)"/>
<path fill-rule="evenodd" clip-rule="evenodd" d="M15.0628 32.4319C14.4043 32.6788 13.9928 33.3373 13.9928 34.325V66.0958C13.9928 67.0835 14.4043 67.742 15.0628 67.9889L32.8413 50.2104L15.0628 32.4319Z" fill="url(#paint2_linear_52_130)"/>
<path fill-rule="evenodd" clip-rule="evenodd" d="M15.0609 67.9882C15.5547 68.1528 16.1309 68.0705 16.707 67.7413L38.354 55.8067L32.8394 50.2097L15.0609 67.9882Z" fill="url(#paint3_linear_52_130)"/>
</g>
<g clip-path="url(#clip3_52_130)">
<path fill-rule="evenodd" clip-rule="evenodd" d="M193.192 64.2018L202.474 42.8017H199.451L195.157 53.4713H195.097L190.683 42.8017H187.659L193.767 56.7148L190.32 64.2018H193.192Z" fill="white"/>
<path fill-rule="evenodd" clip-rule="evenodd" d="M180.251 42.8017C176.536 42.8017 174.753 45.019 174.24 46.3668L176.777 47.445C177.291 46.0668 178.771 45.3183 180.311 45.3183C182.396 45.3183 184.178 46.6661 184.178 48.8834V49.3029C183.603 48.9732 182.154 48.4037 180.16 48.4037C176.686 48.4037 173.666 50.2014 173.666 53.5267C173.666 56.583 176.173 58.4402 179.194 58.4402C181.731 58.4402 183.241 57.1519 184.056 55.9237H184.178V57.9605H186.835V49.0928C186.835 44.9589 183.875 42.8017 180.251 42.8017ZM179.645 55.9256C178.195 55.9256 176.564 55.1466 176.564 53.5887C176.564 52.2402 177.712 50.683 180.642 50.683C182.997 50.683 184.176 51.641 184.176 51.641C184.176 54.038 181.85 55.9256 179.645 55.9256Z" fill="white"/>
<path fill-rule="evenodd" clip-rule="evenodd" d="M169.555 37.0432H172.024V58.4432H169.555V37.0432Z" fill="white"/>
<path fill-rule="evenodd" clip-rule="evenodd" d="M160.39 37.0432H153.094V58.4432H155.845V49.7756H160.39C163.947 49.7756 167.087 47.1457 167.087 43.4097C167.087 39.6738 163.947 37.0432 160.39 37.0432ZM160.449 47.1454H155.845V39.6734H160.449C162.901 39.6734 164.276 41.7055 164.276 43.4094C164.276 45.1126 162.901 47.1454 160.449 47.1454Z" fill="white"/>
<path fill-rule="evenodd" clip-rule="evenodd" d="M133.735 51.1531C133.652 48.3727 135.922 46.9559 137.556 46.9559C138.83 46.9559 139.91 47.5829 140.27 48.4817L133.735 51.1531ZM137.807 58.5655C141.157 58.5655 143.095 56.5484 143.898 55.3769L141.406 53.7414C140.576 54.9408 139.44 55.7313 137.807 55.7313C136.173 55.7313 135.01 54.9953 134.263 53.5506L144.037 49.5715L143.704 48.7537C143.095 47.1461 141.24 44.1749 137.447 44.1749C133.681 44.1749 130.552 47.0916 130.552 51.3706C130.552 55.4042 133.653 58.5655 137.807 58.5655Z" fill="white"/>
<path fill-rule="evenodd" clip-rule="evenodd" d="M125.791 58.1314H129.003V36.982H125.791V58.1314Z" fill="white"/>
<path fill-rule="evenodd" clip-rule="evenodd" d="M123.576 57.5297C123.576 62.8445 120.392 65.0245 116.626 65.0245C113.082 65.0245 110.95 62.6809 110.147 60.7728L112.944 59.6286C113.442 60.8 114.66 62.1902 116.626 62.1902C119.035 62.1902 120.531 60.7183 120.531 57.9658V56.93H120.42C119.7 57.8023 118.315 58.5655 116.571 58.5655C112.916 58.5655 109.566 55.4314 109.566 51.3978C109.566 47.3369 112.916 44.1749 116.571 44.1749C118.315 44.1749 119.7 44.9382 120.42 45.7832H120.531V44.6111H123.576V57.5297ZM112.779 51.3987C112.779 53.9059 114.634 55.7322 116.85 55.7322C119.037 55.7322 120.754 53.9059 120.754 51.3987C120.754 48.8637 119.037 47.0108 116.85 47.0108C114.634 47.0108 112.779 48.8637 112.779 51.3987Z" fill="white"/>
<path fill-rule="evenodd" clip-rule="evenodd" d="M108.234 51.3706C108.234 55.5132 104.939 58.5655 100.896 58.5655C96.8534 58.5655 93.5585 55.5132 93.5585 51.3706C93.5585 47.2006 96.8534 44.1749 100.896 44.1749C104.939 44.1749 108.234 47.2006 108.234 51.3706ZM96.7724 51.3736C96.7724 53.9352 98.6827 55.7343 100.898 55.7343C103.113 55.7343 105.024 53.9352 105.024 51.3736C105.024 48.784 103.113 47.0129 100.898 47.0129C98.6827 47.0129 96.7724 48.784 96.7724 51.3736Z" fill="white"/>
<path fill-rule="evenodd" clip-rule="evenodd" d="M92.2281 51.3706C92.2281 55.5132 88.9331 58.5655 84.8904 58.5655C80.8477 58.5655 77.552 55.5132 77.552 51.3706C77.552 47.2006 80.8477 44.1749 84.8904 44.1749C88.9331 44.1749 92.2281 47.2006 92.2281 51.3706ZM80.7659 51.3736C80.7659 53.9352 82.6761 55.7343 84.8917 55.7343C87.1066 55.7343 89.0175 53.9352 89.0175 51.3736C89.0175 48.784 87.1066 47.0129 84.8917 47.0129C82.6761 47.0129 80.7659 48.784 80.7659 51.3736Z" fill="white"/>
<path fill-rule="evenodd" clip-rule="evenodd" d="M65.841 58.5678C69.2197 58.5678 71.7669 57.4775 73.7603 55.4337C75.8097 53.4166 76.4466 50.5824 76.4466 48.2926C76.4466 47.5846 76.3913 46.9304 76.2805 46.3852H65.841V49.4375H73.2618C73.0402 51.1548 72.4593 52.408 71.5731 53.2803C70.493 54.3434 68.8036 55.5155 65.841 55.5155C61.272 55.5155 57.7001 51.8908 57.7001 47.3938C57.7001 42.8967 61.272 39.272 65.841 39.272C68.3058 39.272 70.1053 40.2254 71.4346 41.452L73.6218 39.2993C71.7669 37.5547 69.3021 36.219 65.841 36.219C59.5833 36.219 54.3221 41.234 54.3221 47.3938C54.3221 53.5529 59.5833 58.5678 65.841 58.5678Z" fill="white"/>
</g>
<path fill-rule="evenodd" clip-rule="evenodd" d="M62.5335 24.962C62.4349 25.0906 62.2977 25.2331 62.122 25.3896C61.9462 25.5461 61.7201 25.6918 61.4436 25.8269C61.1671 25.9619 60.8348 26.0755 60.4469 26.1677C60.0589 26.2598 59.6034 26.3059 59.0804 26.3059C58.4931 26.3059 57.9541 26.2052 57.4632 26.0037C56.9724 25.8022 56.5512 25.5107 56.1997 25.1292C55.8481 24.7476 55.5749 24.2782 55.3798 23.7209C55.1848 23.1637 55.0872 22.5271 55.0872 21.8111V21.1938C55.0872 20.4822 55.1751 19.8467 55.3509 19.2873C55.5266 18.7278 55.7796 18.2552 56.1096 17.8694C56.4397 17.4836 56.8427 17.1899 57.3185 16.9884C57.7944 16.7869 58.3345 16.6862 58.939 16.6862C59.5091 16.6862 60.0064 16.7601 60.4308 16.908C60.8552 17.0559 61.2132 17.2628 61.5047 17.5286C61.7962 17.7944 62.0255 18.1105 62.1927 18.477C62.3599 18.8436 62.4714 19.2455 62.5271 19.6827H60.9324C60.8938 19.4384 60.8295 19.2133 60.7395 19.0075C60.6494 18.8018 60.5262 18.6239 60.3697 18.4738C60.2132 18.3238 60.0203 18.2059 59.791 18.1202C59.5616 18.0344 59.2884 17.9915 58.9711 17.9915C58.5896 17.9915 58.2584 18.0623 57.9776 18.2037C57.6969 18.3452 57.4632 18.5521 57.2767 18.8243C57.0903 19.0965 56.9509 19.4309 56.8588 19.8274C56.7666 20.2239 56.7205 20.6751 56.7205 21.181V21.8111C56.7205 22.3256 56.7763 22.781 56.8877 23.1776C56.9992 23.5741 57.1589 23.9074 57.3668 24.1775C57.5747 24.4476 57.8276 24.6533 58.1255 24.7948C58.4235 24.9363 58.7611 25.007 59.1383 25.007C59.417 25.007 59.656 24.9888 59.8553 24.9523C60.0546 24.9159 60.2229 24.8698 60.3601 24.8141C60.4973 24.7584 60.6098 24.6973 60.6977 24.6308C60.7855 24.5644 60.8574 24.5012 60.9131 24.4411V22.6085H58.984V21.3739H62.5335V24.962ZM69.7929 21.9974H65.9476V24.8782H70.4424V26.1771H64.3207V16.8146H70.3973V18.1264H65.9476V20.7114H69.7929V21.9974ZM78.5307 18.1264H75.6113V26.1771H73.9973V18.1264H71.1037V16.8146H78.5307V18.1264ZM84.7552 26.1771H83.1348V16.8146H84.7552V26.1771ZM93.5188 18.1264H90.5995V26.1771H88.9855V18.1264H86.0918V16.8146H93.5188V18.1264ZM105.501 21.7402C105.501 22.4518 105.408 23.0894 105.221 23.6532C105.035 24.2169 104.772 24.6949 104.433 25.0871C104.095 25.4794 103.687 25.7805 103.212 25.9906C102.736 26.2006 102.208 26.3057 101.63 26.3057C101.055 26.3057 100.53 26.2006 100.054 25.9906C99.5784 25.7805 99.168 25.4794 98.8229 25.0871C98.4778 24.6949 98.2099 24.2169 98.0191 23.6532C97.8283 23.0894 97.7329 22.4518 97.7329 21.7402V21.2643C97.7329 20.5527 97.8283 19.914 98.0191 19.3481C98.2099 18.7822 98.4756 18.3021 98.8165 17.9077C99.1573 17.5133 99.5656 17.2111 100.041 17.001C100.517 16.791 101.042 16.6859 101.617 16.6859C102.196 16.6859 102.724 16.791 103.202 17.001C103.68 17.2111 104.089 17.5133 104.43 17.9077C104.771 18.3021 105.035 18.7822 105.221 19.3481C105.408 19.914 105.501 20.5527 105.501 21.2643V21.7402ZM103.872 21.2511C103.872 20.7281 103.821 20.2662 103.721 19.8654C103.62 19.4645 103.473 19.1291 103.28 18.859C103.087 18.5889 102.85 18.3843 102.57 18.2449C102.289 18.1056 101.971 18.0359 101.615 18.0359C101.267 18.0359 100.955 18.1056 100.676 18.2449C100.397 18.3843 100.16 18.5889 99.9654 18.859C99.7703 19.1291 99.6203 19.4645 99.5152 19.8654C99.4102 20.2662 99.3577 20.7281 99.3577 21.2511V21.7398C99.3577 22.2628 99.4102 22.7258 99.5152 23.1287C99.6203 23.5317 99.7714 23.8693 99.9686 24.1415C100.166 24.4137 100.405 24.6195 100.686 24.7588C100.966 24.8981 101.28 24.9678 101.628 24.9678C102.348 24.9678 102.902 24.6935 103.29 24.1447C103.678 23.596 103.872 22.7944 103.872 21.7398V21.2511ZM114.549 26.1771H112.922L108.748 19.5346V26.1771H107.122V16.8146H108.748L112.935 23.4828V16.8146H114.549V26.1771Z" fill="white"/>
</g>
</g>
<defs>
<linearGradient id="paint0_linear_52_130" x1="46.7106" y1="46.3965" x2="43.0555" y2="19.1327" gradientUnits="userSpaceOnUse">
<stop stop-color="#D6FFA1"/>
<stop offset="0.3264" stop-color="#93E2A7"/>
<stop offset="1" stop-color="#00A3B5"/>
</linearGradient>
<linearGradient id="paint1_linear_52_130" x1="11.0943" y1="36.5193" x2="21.6219" y2="65.5357" gradientUnits="userSpaceOnUse">
<stop stop-color="#FF177B"/>
<stop offset="0.6721" stop-color="#FFA976"/>
<stop offset="1" stop-color="#FFEC73"/>
</linearGradient>
<linearGradient id="paint2_linear_52_130" x1="33.3726" y1="49.9399" x2="10.5378" y2="25.1824" gradientUnits="userSpaceOnUse">
<stop stop-color="#63FFD4"/>
<stop offset="0.4854" stop-color="#32A0BA"/>
<stop offset="0.8349" stop-color="#1262A9"/>
<stop offset="1" stop-color="#064AA2"/>
</linearGradient>
<linearGradient id="paint3_linear_52_130" x1="39.9307" y1="43.82" x2="7.41468" y2="51.3955" gradientUnits="userSpaceOnUse">
<stop stop-color="#FF4521"/>
<stop offset="0.3411" stop-color="#D43E65"/>
<stop offset="0.7935" stop-color="#9F36B9"/>
<stop offset="1" stop-color="#8A33DB"/>
</linearGradient>
<clipPath id="clip0_52_130">
<rect width="216" height="77.4104" fill="white"/>
</clipPath>
<clipPath id="clip1_52_130">
<rect width="188.485" height="51.854" fill="white" transform="translate(13.9925 16.4638)"/>
</clipPath>
<clipPath id="clip2_52_130">
<rect width="33.3347" height="36.2155" fill="white" transform="translate(13.9926 32.1036)"/>
</clipPath>
<clipPath id="clip3_52_130">
<rect width="148.154" height="29.2193" fill="white" transform="translate(54.3221 36.219)"/>
</clipPath>
</defs>
</svg>
