<svg width="102" height="48" viewBox="0 0 102 48" fill="none" xmlns="http://www.w3.org/2000/svg">
<path fill-rule="evenodd" clip-rule="evenodd" d="M51.8343 47.1802C40.4133 47.1802 27.191 42.0211 22.8653 30.3328C22.6649 29.7913 22.9377 29.188 23.4753 28.9855C24.0127 28.7846 24.6103 29.0581 24.8113 29.6008C28.8626 40.5491 41.6122 45.2549 52.4371 45.0807C67.2823 44.8296 75.1482 36.9935 77.5596 29.7438C77.7426 29.1951 78.3318 28.9021 78.8743 29.0837C79.4182 29.2678 79.7109 29.8616 79.5287 30.4097C77.7908 35.6347 74.1408 39.9599 68.9741 42.9171C64.2873 45.5991 58.5811 47.072 52.4722 47.1752C52.2601 47.1788 52.0473 47.1802 51.8343 47.1802Z" fill="#1D1D1B"/>
<path fill-rule="evenodd" clip-rule="evenodd" d="M24.445 11.5439V20.39C24.445 20.9862 23.9596 21.4503 23.335 21.4503C22.7108 21.4503 22.2251 20.9862 22.2251 20.39V11.9747C22.2251 9.35719 21.2539 7.56827 17.889 7.56827C14.9057 7.56827 13.553 9.09214 13.553 11.5439V20.39C13.553 20.9862 13.0675 21.4503 12.4429 21.4503C11.8187 21.4503 11.3329 20.9862 11.3329 20.39V11.9747C11.3329 9.35719 10.4656 7.56827 7.06628 7.56827C3.84051 7.56827 2.79967 9.42345 2.79967 12.2065V20.39C2.79967 20.9862 2.31402 21.4503 1.68963 21.4503C1.06542 21.4503 0.57959 20.9862 0.57959 20.39V6.93868C0.57959 6.34232 1.06542 5.87848 1.68963 5.87848C2.31402 5.87848 2.79967 6.34232 2.79967 6.93868V7.99889C3.38947 6.77294 5.05434 5.67969 7.30919 5.67969C10.1537 5.67969 11.9919 6.67363 12.8246 7.99889C13.6917 6.70667 15.218 5.67969 17.889 5.67969C23.231 5.67969 24.445 8.72778 24.445 11.5439Z" fill="#1D1D1B"/>
<path fill-rule="evenodd" clip-rule="evenodd" d="M40.3858 13.5487C40.3858 9.41747 38.6202 7.58154 35.5559 7.58154C32.4912 7.58154 30.7258 9.41747 30.7258 13.5487C30.7258 17.7455 32.4912 19.5489 35.5559 19.5489C38.6202 19.5489 40.3858 17.7455 40.3858 13.5487ZM42.55 13.5485C42.55 18.9257 39.8852 21.4503 35.555 21.4503C31.2579 21.4503 28.5599 18.9257 28.5599 13.5485C28.5599 8.17137 31.2579 5.67969 35.555 5.67969C39.8852 5.67969 42.55 8.17137 42.55 13.5485Z" fill="#1D1D1B"/>
<path fill-rule="evenodd" clip-rule="evenodd" d="M49.7282 2.59273C49.7282 2.02745 50.2155 1.52869 50.7677 1.52869C51.3524 1.52869 51.8072 2.02745 51.8072 2.59273V6.0846H53.9186C54.4709 6.0846 54.8931 6.51702 54.8931 7.0823C54.8931 7.64793 54.4709 8.08018 53.9186 8.08018H51.8072V17.259C51.8072 18.689 52.5868 19.454 53.6911 19.454C54.2434 19.454 54.6982 19.8862 54.6982 20.4515C54.6982 21.0168 54.2434 21.4494 53.6911 21.4494C51.1251 21.4494 49.7282 19.6867 49.7282 17.259V8.08018H48.4613C47.909 8.08018 47.4866 7.64793 47.4866 7.0823C47.4866 6.51702 47.909 6.0846 48.4613 6.0846H49.7282V2.59273Z" fill="#1D1D1B"/>
<mask id="mask0_52_1312" style="mask-type:alpha" maskUnits="userSpaceOnUse" x="60" y="0" width="4" height="22">
<path fill-rule="evenodd" clip-rule="evenodd" d="M60.7402 0H63.0856V21.2931H60.7402V0Z" fill="white"/>
</mask>
<g mask="url(#mask0_52_1312)">
<path fill-rule="evenodd" clip-rule="evenodd" d="M62.9 20.23C62.9 20.8268 62.4679 21.2913 61.9124 21.2913C61.357 21.2913 60.9249 20.8268 60.9249 20.23V6.76429C60.9249 6.16728 61.357 5.70294 61.9124 5.70294C62.4679 5.70294 62.9 6.16728 62.9 6.76429V20.23ZM60.7402 1.32645C60.7402 0.364689 61.1724 -6.10352e-05 61.9129 -6.10352e-05C62.6534 -6.10352e-05 63.0856 0.364689 63.0856 1.32645C63.0856 2.12264 62.6534 2.58698 61.9129 2.58698C61.1724 2.58698 60.7402 2.12264 60.7402 1.32645Z" fill="#1D1D1B"/>
</g>
<path fill-rule="evenodd" clip-rule="evenodd" d="M80.7101 13.5487C80.7101 9.41747 78.9446 7.58154 75.8803 7.58154C72.8158 7.58154 71.0505 9.41747 71.0505 13.5487C71.0505 17.7455 72.8158 19.5489 75.8803 19.5489C78.9446 19.5489 80.7101 17.7455 80.7101 13.5487ZM82.8751 13.5485C82.8751 18.9257 80.2102 21.4503 75.8801 21.4503C71.5832 21.4503 68.8851 18.9257 68.8851 13.5485C68.8851 8.17137 71.5832 5.67969 75.8801 5.67969C80.2102 5.67969 82.8751 8.17137 82.8751 13.5485Z" fill="#1D1D1B"/>
<path fill-rule="evenodd" clip-rule="evenodd" d="M101.132 11.5821V20.2582C101.132 20.8429 100.688 21.298 100.117 21.298C99.5466 21.298 99.1027 20.8429 99.1027 20.2582V12.0046C99.1027 9.43747 98.3735 7.68295 95.2981 7.68295C92.1592 7.68295 91.081 9.63243 91.081 12.232V20.2582C91.081 20.8429 90.6373 21.298 90.0664 21.298C89.4959 21.298 89.052 20.8429 89.052 20.2582V7.06547C89.052 6.48057 89.4959 6.02565 90.0664 6.02565C90.6373 6.02565 91.081 6.48057 91.081 7.06547V8.10529C91.6835 6.87051 93.2372 5.83069 95.2981 5.83069C100.181 5.83069 101.132 8.82016 101.132 11.5821Z" fill="#1D1D1B"/>
</svg>
